<svg width="50" height="50" viewBox="0 0 50 50" fill="none" xmlns="http://www.w3.org/2000/svg">
<rect width="50" height="50" fill="#F0EFEF"/>
<path d="M20.5921 19.9907L24.3707 21.5978C20.4181 23.205 16.5528 25.1158 12.9038 27.2886C11.6944 26.6369 10.3843 26.0288 9.12518 25.4645C12.8171 23.3796 16.6394 21.5118 20.5921 19.9921M15.8587 18.3325C11.7476 19.6294 7.77559 21.3321 4.00146 23.4153C5.17389 23.8493 6.39065 24.3277 7.5624 24.806C11.2107 22.6775 15.0767 20.8534 19.0716 19.4203C18.0289 19.0293 16.9431 18.6812 15.8574 18.3345" fill="#3366CC"/>
<path d="M29.2358 19.8537C25.9786 18.2903 22.634 16.9868 19.159 15.9011C17.9496 16.2484 16.7268 16.6401 15.5537 17.0298C19.1147 18.0726 22.5903 19.419 25.9342 21.0255C26.977 20.6344 28.1057 20.2004 29.2351 19.853M34.4912 18.2405C31.1903 16.8074 27.759 15.5913 24.2404 14.6353C23.1296 14.8493 22.0283 15.1103 20.9395 15.4173C24.4144 16.4164 27.802 17.7192 31.0599 19.247C32.1887 18.8996 33.3618 18.5523 34.4912 18.2479M43.0039 21.1061C34.6646 23.893 26.891 27.8893 19.8537 32.9277C21.5912 34.0135 23.3287 35.1429 25.0225 36.359C31.668 31.1036 39.0519 26.6726 47.0002 23.3716C45.6537 22.5466 44.351 21.8082 43.0045 21.1128M37.2714 18.3769C28.6278 20.6788 20.5055 24.3701 13.1646 29.2358C14.8153 30.0608 16.4218 30.9289 18.0289 31.8426C25.1965 26.8909 33.1878 23.0243 41.7011 20.4611C40.2413 19.7307 38.7641 19.0355 37.2708 18.3763" fill="#E2173E"/>
</svg>
