<svg width="56" height="56" viewBox="0 0 56 56" fill="none" xmlns="http://www.w3.org/2000/svg">
<path d="M22.9188 37.4744H18.0465C18.0165 37.4743 17.9869 37.4666 17.9607 37.4519C17.9344 37.4372 17.9123 37.416 17.8964 37.3903L14.748 32.2733L11.5982 37.3903C11.5826 37.416 11.5606 37.4372 11.5344 37.452C11.5082 37.4667 11.4787 37.4744 11.4488 37.4744H6.57714C6.54508 37.4745 6.51361 37.4657 6.48611 37.4492C6.45861 37.4326 6.43612 37.4088 6.42106 37.3803C6.406 37.3518 6.39894 37.3197 6.40064 37.2875C6.40234 37.2553 6.41273 37.2242 6.4307 37.1974L12.2798 28.4483L6.5027 20.0019C6.48446 19.9753 6.4738 19.9441 6.47187 19.9118C6.46995 19.8795 6.47684 19.8473 6.49179 19.8187C6.50674 19.7901 6.52919 19.7661 6.55671 19.7493C6.58423 19.7326 6.61577 19.7238 6.64792 19.7238H11.5494C11.5793 19.7238 11.6086 19.7315 11.6346 19.7461C11.6607 19.7608 11.6826 19.7818 11.6983 19.8073L14.7492 24.6897L17.7799 19.8386C17.8012 19.8042 17.8309 19.7758 17.8661 19.7561C17.9013 19.7365 17.941 19.7262 17.9813 19.7262H22.8486C22.8808 19.7262 22.9123 19.7351 22.9398 19.7518C22.9673 19.7685 22.9898 19.7925 23.0047 19.8211C23.0197 19.8498 23.0266 19.882 23.0247 19.9143C23.0227 19.9466 23.0121 19.9778 22.9938 20.0044L17.2149 28.4483L23.0652 37.1974C23.083 37.2242 23.0932 37.2553 23.0948 37.2874C23.0964 37.3196 23.0893 37.3516 23.0742 37.38C23.0592 37.4084 23.0368 37.4321 23.0095 37.4488C22.9821 37.4654 22.9507 37.4743 22.9188 37.4744ZM32.3112 11.2C29.9272 11.1969 27.5685 11.6913 25.384 12.6521C23.1995 13.6128 21.2367 15.019 19.6196 16.7818C19.6081 16.7947 19.6005 16.8107 19.5978 16.8279C19.5951 16.845 19.5974 16.8625 19.6044 16.8784C19.6113 16.8943 19.6226 16.9078 19.637 16.9173C19.6514 16.9269 19.6682 16.9321 19.6855 16.9323H20.4525C20.4945 16.932 20.535 16.9165 20.5666 16.8887C23.4239 14.3864 27.0859 13.0119 30.8736 13.0201C39.5057 13.0201 46.5025 19.9958 46.5025 28.6006C46.5025 37.2054 39.5081 44.1799 30.876 44.1799C27.0884 44.188 23.4264 42.8135 20.569 40.3113C20.5374 40.2835 20.4969 40.268 20.4549 40.2677H19.6879C19.6707 40.2679 19.6539 40.2731 19.6395 40.2826C19.6251 40.2922 19.6137 40.3057 19.6068 40.3216C19.5998 40.3375 19.5976 40.355 19.6003 40.3721C19.603 40.3893 19.6105 40.4053 19.622 40.4182C21.2391 42.181 23.2019 43.5872 25.3864 44.5479C27.5709 45.5086 29.9296 46.0031 32.3136 46C41.8597 45.9988 49.6004 38.2082 49.6004 28.5988C49.6004 18.9894 41.8597 11.2 32.3112 11.2ZM39.1664 30.1794H26.1374C26.2515 32.1677 27.9954 33.8828 30.5246 33.8828C32.4722 33.8828 33.7133 33.1029 34.4663 31.9055C34.4895 31.8674 34.5262 31.8395 34.5689 31.8275C34.6117 31.8154 34.6574 31.82 34.6969 31.8404L37.9919 33.5598C38.0138 33.5712 38.0332 33.5871 38.0487 33.6065C38.0642 33.6259 38.0755 33.6484 38.0818 33.6725C38.0881 33.6966 38.0893 33.7217 38.0854 33.7463C38.0815 33.7709 38.0725 33.7943 38.059 33.8152C36.4902 36.2002 33.7969 37.7759 30.502 37.7759H30.4776C25.2576 37.7759 21.6832 33.9319 21.6832 28.5988C21.6832 23.2657 25.2545 19.4223 30.4745 19.4223C35.6946 19.4223 39.4544 23.5309 39.4544 28.5988C39.4563 29.0623 39.4226 29.5252 39.3538 29.9835C39.3367 30.0756 39.2726 30.1794 39.1664 30.1794ZM35.0722 26.5871C34.7994 25.4585 33.4857 23.3142 30.6844 23.3142C27.9936 23.3142 26.6103 25.0084 26.282 26.5871H35.0722Z" fill="#0A146E"/>
</svg>
